HIERARCHY
ROOT Hips
{
	OFFSET 0.000000 0.000000 0.000000
	CHANNELS 6 Xposition Yposition Zposition Zrotation Yrotation Xrotation 
	JOINT LHipJoint
	{
		OFFSET 0.000000 0.000000 0.000000
		CHANNELS 3 Zrotation Yrotation Xrotation
		JOINT LeftUpLeg
		{
			OFFSET 1.363060 -1.794630 0.839290
			CHANNELS 3 Zrotation Yrotation Xrotation
			JOINT LeftLeg
			{
				OFFSET 2.448110 -6.726130 0.000000
				CHANNELS 3 Zrotation Yrotation Xrotation
				JOINT LeftFoot
				{
					OFFSET 2.562200 -7.039590 0.000000
					CHANNELS 3 Zrotation Yrotation Xrotation
					JOINT LeftToeBase
					{
						OFFSET 0.157640 -0.433110 2.322550
						CHANNELS 3 Zrotation Yrotation Xrotation
						End Site
						{
							OFFSET 0.000000 0.000000 0.000000
						}
					}
				}
			}
		}
	}
	JOINT RHipJoint
	{
		OFFSET 0.000000 0.000000 0.000000
		CHANNELS 3 Zrotation Yrotation Xrotation
		JOINT RightUpLeg
		{
			OFFSET -1.305520 -1.794630 0.839290
			CHANNELS 3 Zrotation Yrotation Xrotation
			JOINT RightLeg
			{
				OFFSET -2.542530 -6.985550 0.000000
				CHANNELS 3 Zrotation Yrotation Xrotation
				JOINT RightFoot
				{
					OFFSET -2.568260 -7.056230 0.000000
					CHANNELS 3 Zrotation Yrotation Xrotation
					JOINT RightToeBase
					{
						OFFSET -0.164730 -0.452590 2.363150
						CHANNELS 3 Zrotation Yrotation Xrotation
						End Site
						{
							OFFSET 0.000000 0.000000 0.000000
						}
					}
				}
			}
		}
	}
}
MOTION
Frames: 22
Frame Time: 0.008333
9.982105 21.487617 1.076163 55.847241 -81.549929 -10.804996 -9.317139 -0.618312 3.500104 -12.186816 -9.395833 -77.788167 1.434725 4.569580 72.684198 1.881839 8.896731 1.362848 1.780100 0.000000 -52.454100 10.839051 3.022215 3.015159 -0.760189 -4.035350 -79.055556 -2.242363 -6.636609 80.764556 -1.902793 -6.582440 -12.447780 0.182000 -0.000000 -68.057000
9.912451 21.564123 1.059549 56.135876 -81.211705 -9.296712 -9.110372 -0.935718 3.577263 -12.394995 -10.788546 -82.966085 1.815214 5.030005 76.632217 2.021375 9.414066 -0.308448 1.658000 -0.000000 -50.845400 10.714967 3.391286 3.363333 -1.413289 -3.666060 -84.459438 -2.738589 -7.157731 84.630782 -1.952332 -6.540262 -14.245265 0.398500 -0.000000 -66.926600
9.841207 21.627447 1.043734 56.401316 -80.963432 -7.734094 -8.892363 -1.233974 3.664007 -12.370746 -12.213932 -88.186194 2.212241 5.482731 80.241142 2.161182 9.904859 -1.815311 1.530300 -0.000000 -49.209900 10.569473 3.733341 3.754639 -2.134032 -3.228169 -89.927860 -3.256735 -7.643299 88.162166 -1.997535 -6.479165 -15.846909 0.589999 -0.000000 -65.848600
9.767909 21.678623 1.028360 56.668026 -80.814125 -6.179741 -8.668186 -1.504771 3.742128 -12.118472 -13.609188 -93.392731 2.616273 5.928247 83.510689 2.291648 10.327912 -3.172839 1.394600 0.000000 -47.616301 10.405603 4.045473 4.172681 -2.929035 -2.736410 -95.391716 -3.782133 -8.086562 91.351034 -2.037928 -6.399652 -17.270386 0.758000 -0.000000 -64.836500
9.692214 21.719011 1.013092 56.948279 -80.766696 -4.684559 -8.444206 -1.742037 3.794036 -11.660053 -14.914301 -98.522188 3.018150 6.367406 86.445750 2.403198 10.646461 -4.386209 1.252200 -0.000000 -46.139700 10.226317 4.325596 4.596273 -3.792425 -2.210881 -100.775302 -4.298902 -8.484087 94.192406 -2.072749 -6.301837 -18.528590 0.903100 -0.000000 -63.903900
9.614144 21.750160 0.997626 57.245584 -80.818543 -3.292064 -8.226657 -1.942614 3.804694 -11.033264 -16.078996 -103.507432 3.409213 6.801010 89.053288 2.487278 10.832056 -5.451505 1.108300 -0.000000 -44.853500 10.034016 4.572840 5.001677 -4.705693 -1.671843 -106.002283 -4.791368 -8.835729 96.683612 -2.101491 -6.187389 -19.629523 1.025600 0.000000 -63.060600
9.533726 21.773677 0.981687 57.564973 -80.962690 -2.041253 -8.020884 -2.105799 3.763772 -10.287445 -17.067789 -108.281441 3.781219 7.228974 91.339831 2.537545 10.868350 -6.358409 0.970599 0.000000 -43.821800 9.830742 4.787020 5.366053 -5.639670 -1.134284 -111.001787 -5.245146 -9.143885 98.823798 -2.124220 -6.060289 -20.577117 1.126000 0.000000 -62.312500
9.450990 21.791064 0.965099 57.916032 -81.188816 -0.966547 -7.830771 -2.232783 3.666506 -9.476846 -17.862472 -112.780899 4.126126 7.649476 93.308916 2.550625 10.752591 -7.092851 0.847800 0.000000 -43.093799 9.618279 4.968326 5.669916 -6.558132 -0.604320 -115.713287 -5.647882 -9.412477 100.613009 -2.141901 -5.928124 -21.371158 1.204900 -0.000000 -61.663100
9.366084 21.803905 0.947734 58.312234 -81.484828 -0.099767 -7.658151 -2.326034 3.513621 -8.653787 -18.462556 -116.953706 4.436102 8.058842 94.960449 2.526498 10.495363 -7.639566 0.748100 0.000000 -42.699700 9.398310 5.117105 5.898486 -7.422909 -0.078461 -120.085940 -5.989347 -9.645759 102.050811 -2.156059 -5.800620 -22.008013 1.263400 0.000000 -61.113000
9.278977 21.813094 0.929489 58.785506 -81.836778 0.518667 -7.503878 -2.388085 3.311968 -7.865780 -18.880314 -120.752963 4.702828 8.451025 96.288660 2.468488 10.119354 -7.984879 0.677500 -0.000000 -42.646600 9.173562 5.232821 6.045481 -8.200654 0.453592 -124.084270 -6.261705 -9.847588 103.136374 -2.168252 -5.687153 -22.480786 1.302300 -0.000000 -60.664401
9.189817 21.819377 0.910386 59.365202 -82.232331 0.858931 -7.367181 -2.422059 3.071227 -7.145066 -19.137283 -124.151543 4.918647 8.818787 97.286337 2.382713 9.656199 -8.117773 0.639400 0.000000 -42.920000 8.946818 5.315760 6.108661 -8.862648 1.007020 -127.684234 -6.459050 -10.021509 103.868796 -2.179152 -5.593077 -22.780618 1.321600 0.000000 -60.319700
9.098448 21.822941 0.890345 60.107098 -82.658087 0.871515 -7.247308 -2.429850 2.806801 -6.513427 -19.260148 -127.131975 5.076015 9.154169 97.943110 2.277035 9.142032 -8.030995 0.634700 -0.000000 -43.486900 8.723191 5.364954 6.095797 -9.392445 1.595124 -130.872740 -6.577552 -10.169764 104.246938 -2.187615 -5.515915 -22.895448 1.319300 -0.000001 -60.091400
9.004682 21.823672 0.869456 61.062826 -83.103540 0.517533 -7.143537 -2.413340 2.535069 -5.978153 -19.273636 -129.688295 5.168681 9.449230 98.249524 2.160051 8.613845 -7.721041 0.662100 0.000000 -44.300001 8.508480 5.380397 6.018491 -9.781505 2.227826 -133.645564 -6.615235 -10.294261 104.271302 -2.190018 -5.442980 -22.811043 1.291700 -0.000001 -60.002000
8.908059 21.820779 0.847750 62.300464 -83.558718 -0.252500 -7.055457 -2.373372 2.273987 -5.535557 -19.200638 -131.826715 5.192156 9.697252 98.198255 2.039883 8.104837 -7.187589 0.719500 0.000000 -45.304700 8.310059 5.362728 5.893526 -10.031964 2.907141 -136.005229 -6.572123 -10.396162 103.944763 -2.179716 -5.349555 -22.511154 1.232700 0.000001 -60.090300
8.808353 21.813272 0.825486 63.850184 -84.017637 -1.452841 -6.982829 -2.311607 2.040601 -5.170168 -19.056704 -133.559843 5.144472 9.892197 97.785623 1.923286 7.641243 -6.432902 0.804500 0.000000 -46.447101 8.135131 5.313852 5.738209 -10.148928 3.629044 -137.955278 -6.449841 -10.476398 103.272834 -2.147423 -5.201172 -21.978385 1.136100 -0.000001 -60.406501
8.705027 21.800075 0.802936 65.741030 -84.474645 -3.093565 -6.925575 -2.229499 1.849790 -4.864584 -18.853406 -134.901113 5.026005 10.029343 97.012188 1.814985 7.239897 -5.462213 0.915000 0.000000 -47.677700 7.991313 5.236938 5.570997 -10.144130 4.380901 -139.503483 -6.252080 -10.535341 102.265018 -2.081878 -4.956481 -21.196550 0.997700 0.000000 -61.009900
8.597618 21.780068 0.780387 67.972177 -84.925029 -5.159322 -6.883118 -2.129453 1.712720 -4.600937 -18.598558 -135.863482 4.839511 10.105242 95.882560 1.717553 6.907700 -4.284784 1.049100 -0.000000 -48.955700 7.885357 5.136491 5.408424 -10.030900 5.143807 -140.653825 -5.984296 -10.572378 100.934654 -1.971171 -4.572638 -20.153655 0.818400 0.000000 -61.951700
8.485820 21.752319 0.758250 70.497155 -85.365386 -7.594114 -6.854351 -2.015546 1.635631 -4.363901 -18.297482 -136.457254 4.589929 10.117694 94.405274 1.631339 6.641651 -2.913948 1.204500 -0.000001 -50.248700 7.822019 5.017407 5.263442 -9.821432 5.895051 -141.410541 -5.653468 -10.586355 99.298560 -1.804640 -4.011359 -18.846263 0.607300 0.000000 -63.257400
8.369310 21.716137 0.736936 73.235981 -85.792190 -10.311559 -6.838204 -1.893179 1.620210 -4.144685 -17.955382 -136.686472 4.283680 10.065786 92.591291 1.554941 6.431006 -1.369319 1.378200 -0.000000 -51.531900 7.803606 4.884240 5.145321 -9.526022 6.611047 -141.773265 -5.267870 -10.574833 97.376530 -1.575006 -3.245378 -17.283253 0.383400 -0.000000 -64.909800
8.247935 21.671187 0.716636 76.133905 -86.199887 -13.256215 -6.832891 -1.766965 1.661499 -3.949553 -17.581103 -136.548586 3.927731 9.950830 90.452815 1.485721 6.260305 0.321384 1.565100 0.000000 -52.783700 7.829619 4.742622 5.059166 -9.157999 7.266002 -141.741175 -4.837142 -10.534133 95.191184 -1.280188 -2.263000 -15.488782 0.174599 0.000000 -66.839900
8.121626 21.616809 0.697964 79.025118 -86.588075 -16.264441 -6.839017 -1.644114 1.753203 -3.781868 -17.179877 -136.041737 3.530312 9.774938 88.003218 1.420601 6.112896 2.126005 1.759300 0.000001 -53.987500 7.894525 4.593931 5.004279 -8.717677 7.845497 -141.310811 -4.370391 -10.461026 92.764782 -0.925648 -1.074378 -13.503605 0.014300 -0.000000 -68.929200
7.990556 21.553399 0.681200 81.806932 -86.955771 -19.241120 -6.856966 -1.528398 1.884345 -3.659861 -16.760515 -135.162469 3.099127 9.542611 85.255253 1.356507 5.974037 4.006711 1.953400 0.000001 -55.128400 7.990145 4.440442 4.976299 -8.208658 8.338119 -140.481384 -3.877262 -10.352102 90.121248 -0.524713 0.286183 -11.381607 -0.065100 -0.000000 -71.029300
